<svg width="213" height="105" viewBox="0 0 213 105" fill="none" xmlns="http://www.w3.org/2000/svg">
<path d="M43.35 34.475C43.35 17.375 24.825 18.05 20.625 18.05H5.4V71H17.1V52.4H21.45C30.525 52.4 43.35 49.85 43.35 34.475ZM31.8 35C31.8 41.825 26.1 43.175 21.75 43.175H17.1V26.9H21.6C25.5 26.9 31.8 27.8 31.8 35ZM94.0049 71C88.7549 63.5 80.5799 51.125 77.6549 46.175C81.7799 45.2 88.2299 41.525 88.2299 32.975C88.2299 19.175 74.7299 18.05 65.8799 18.05H49.5299V71H61.2299V49.325H64.5299C66.0299 49.325 67.5299 49.775 69.1049 52.475L79.8299 71H94.0049ZM76.5299 33.575C76.5299 39.275 71.3549 40.625 66.9299 40.625H61.2299V26.9H66.2549C70.8299 26.9 76.5299 27.65 76.5299 33.575ZM110.054 71V18.05H98.3543V71H110.054ZM167.176 43.325C167.176 18.425 145.201 18.05 135.076 18.05H119.626V71H134.551C150.751 71 167.176 66.5 167.176 43.325ZM155.101 44.075C155.101 57.95 147.301 61.85 137.101 61.85H131.401V27.275H136.726C143.926 27.275 155.101 29.225 155.101 44.075ZM208.349 71V61.475H186.224V47.6H206.474V38.45H186.224V27.575H207.224V18.05H174.449V71H208.349Z" fill="white"/>
<path d="M72.49 79.29H67.24L59.925 92.835C58.315 95.81 57.405 97.84 57.195 98.4H57.125C57.09 97.63 57.055 95.845 56.705 92.765L55.165 79.29H49.705L53.1 104.035H58.63L72.49 79.29ZM93.537 87.9C93.537 81.985 90.212 78.555 84.192 78.555C75.197 78.555 69.947 86.92 69.947 95.11C69.947 100.955 73.237 104.595 79.292 104.595C88.287 104.595 93.537 96.055 93.537 87.9ZM88.182 88.285C88.182 93.115 85.767 100.325 79.887 100.325C76.492 100.325 75.302 97.875 75.302 94.795C75.302 89.965 77.717 82.825 83.597 82.825C86.992 82.825 88.182 85.205 88.182 88.285ZM118.469 89.195C118.469 81.915 113.324 79.29 106.884 79.29H98.9035L93.6535 104H102.369C110.489 104 118.469 99.87 118.469 89.195ZM113.044 89.895C113.044 96.16 109.334 99.905 102.894 99.905H99.7435L103.244 83.42H105.974C110.034 83.42 113.044 85.555 113.044 89.895ZM143.998 79.29H137.908L126.603 90.63L129.018 79.29H123.838L118.588 104H123.768L125.553 95.635L128.038 93.29L132.378 104H138.468L132.273 90.385L143.998 79.29ZM162.471 104L159.076 79.255H153.301L139.441 104H144.586L147.141 99.24H156.486L157.011 104H162.471ZM156.031 95.32H149.241L153.511 87.34C154.211 86.045 154.841 84.61 155.051 83.945H155.121C154.981 84.54 155.086 86.465 155.191 87.34L156.031 95.32Z" fill="white"/>
<path d="M172.325 79H213V84H173L172.325 79Z" fill="#D32027"/>
<path d="M4 79H40.7114L42.2391 84H4V79Z" fill="#D32027"/>
<path d="M173 84H213V89H173.5L173 84Z" fill="#EA7524"/>
<path d="M3.5 84H42.251L43.5 89H3.5V84Z" fill="#EA7524"/>
<path d="M173.5 89H213V94H174L173.5 89Z" fill="#277B3D"/>
<path d="M4 89H43.5L45 94H4V89Z" fill="#277B3D"/>
<path d="M174 94H213V99H174.5L174 94Z" fill="#21B0E6"/>
<path d="M4 94H45L46.5 99H4V94Z" fill="#21B0E6"/>
<path d="M174.5 99H213V104H175L174.5 99Z" fill="#9D216D"/>
<path d="M4 99H46.5L48 104H4V99Z" fill="#9D216D"/>
</svg>
